# xmcd CD database file
#
# Track frame offsets:
#	182
#	17230
#	35847
#	56812
#	71225
#	93937
#	114847
#	127070
#	139187
#	158580
#	174517
#	196475
#	214380
#
# Disc length: 3037 seconds
#
# Revision: 0
# Processed by: cddbd v1.5.2PL0 Copyright (c) Steve Scherf et al.
# Submitted via: CDex 1.51
#
DISCID=c30bdb0d
DTITLE=Average Blues Band - Hurt Too Much
DYEAR=1993
DGENRE=Blues
TTITLE0=Hurt Too Much
TTITLE1=Bank Of Love
TTITLE2=Long Long Night
TTITLE3=Who's Been Talking
TTITLE4=Something You Do
TTITLE5=Taste Of The Blues
TTITLE6=Too Bad To Boogie
TTITLE7=Too Smooth For The Blues
TTITLE8=Wrong Side Of The Road
TTITLE9=Talk About Us
TTITLE10=No Bodies Child
TTITLE11=Dirty Weekend
TTITLE12=Highway To The Blues
EXTD=YEAR: 1993
EXTT0=
EXTT1=
EXTT2=
EXTT3=
EXTT4=
EXTT5=
EXTT6=
EXTT7=
EXTT8=
EXTT9=
EXTT10=
EXTT11=
EXTT12=
PLAYORDER=
